<svg width="60" height="60" viewBox="0 0 60 60" fill="none" xmlns="http://www.w3.org/2000/svg">
<path d="M55.959 14.9361C53.2771 10.3416 49.6393 6.70384 45.0446 4.02211C40.4491 1.34052 35.4325 0 29.991 0C24.5499 0 19.5318 1.34052 14.9371 4.02211C10.3422 6.70342 6.70441 10.3412 4.02254 14.9361C1.34053 19.5313 0 24.5494 0 29.99C0 35.4309 1.34094 40.4481 4.02213 45.0436C6.70387 49.6381 10.3417 53.2759 14.9366 55.9579C19.5318 58.6393 24.5495 59.98 29.9904 59.98C35.4313 59.98 40.4496 58.6393 45.0445 55.9579C49.6392 53.2768 53.2768 49.6381 55.9584 45.0436C58.6396 40.4486 59.98 35.4306 59.98 29.99C59.9801 24.5489 58.6396 19.5306 55.959 14.9361ZM48.3829 40.6503C46.4825 43.9043 43.9054 46.4814 40.6514 48.3827C37.3974 50.283 33.844 51.2322 29.9905 51.2322C26.138 51.2322 22.5843 50.283 19.3299 48.3827C16.0759 46.4814 13.4988 43.9043 11.5985 40.6503C9.69772 37.3963 8.74769 33.8428 8.74769 29.99C8.74769 26.1369 9.69813 22.5834 11.5985 19.3294C13.4984 16.0754 16.0762 13.4978 19.3299 11.5976C22.5839 9.69713 26.1375 8.74724 29.9905 8.74724C33.8439 8.74724 37.3974 9.69713 40.6514 11.5976C43.9054 13.4979 46.4827 16.0754 48.3829 19.3294C50.2834 22.5834 51.233 26.1369 51.233 29.99C51.233 33.8428 50.2834 37.3963 48.3829 40.6503Z" fill="white"/>
</svg>
